<?xml version="1.0" standalone="no"?>
<!DOCTYPE svg PUBLIC "-//W3C//DTD SVG 20010904//EN"
 "http://www.w3.org/TR/2001/REC-SVG-20010904/DTD/svg10.dtd">
<svg version="1.0" xmlns="http://www.w3.org/2000/svg"
 width="1024.000000pt" height="1024.000000pt" viewBox="0 0 1024.000000 1024.000000"
 preserveAspectRatio="xMidYMid meet">

<g transform="translate(0.000000,1024.000000) scale(0.100000,-0.100000)"
fill="#000000" stroke="none">
<path d="M4386 8279 c-166 -39 -318 -190 -370 -368 -33 -111 -15 -269 42 -375
34 -65 132 -164 197 -200 102 -56 158 -68 291 -64 116 4 125 5 196 41 187 92
288 253 288 457 0 150 -47 262 -155 371 -68 68 -168 123 -254 139 -65 12 -181
11 -235 -1z m263 -254 c115 -63 171 -197 135 -326 -58 -206 -314 -272 -463
-119 -75 78 -100 199 -62 300 29 76 64 115 133 150 57 29 70 31 134 27 53 -3
83 -11 123 -32z"/>
<path d="M5821 7249 c-1 -172 1 -466 5 -655 l7 -344 583 0 584 0 0 609 c0 334
-3 629 -6 655 l-7 46 -582 0 -581 0 -3 -311z m689 -304 l0 -385 -80 0 -80 0 0
260 0 259 -57 3 -58 3 -3 47 c-2 26 2 56 8 68 6 11 45 45 88 75 69 49 82 54
130 55 l52 0 0 -385z"/>
<path d="M3541 7414 c-91 -24 -224 -100 -302 -172 -97 -89 -474 -545 -506
-611 -25 -52 -22 -136 6 -190 50 -95 159 -186 244 -202 62 -12 164 8 218 42
26 16 113 99 194 185 81 85 171 175 201 200 52 44 54 45 89 34 19 -6 35 -13
35 -14 0 -1 -13 -29 -29 -62 -27 -56 -99 -211 -171 -369 -17 -38 -103 -228
-190 -422 -210 -465 -212 -468 -252 -483 -21 -8 -130 -15 -293 -20 -143 -4
-279 -13 -302 -19 -84 -23 -174 -120 -204 -221 -20 -68 -23 -164 -5 -218 21
-63 82 -134 140 -162 44 -21 52 -21 503 -18 457 3 458 3 527 28 132 46 183
104 365 410 l113 188 56 -25 c70 -31 255 -129 300 -159 50 -33 73 -72 141
-244 34 -85 65 -161 68 -167 4 -10 -37 -13 -174 -15 l-178 -3 0 -95 0 -95 215
3 215 4 47 -99 c80 -168 180 -256 305 -269 171 -18 305 102 320 288 l6 68
1263 0 1263 0 3 100 3 100 -47 0 -48 0 0 643 c0 353 -3 679 -7 725 l-6 82
-583 0 -584 0 0 -715 0 -715 -40 0 -40 0 0 473 c0 261 -3 582 -7 715 l-6 242
-186 0 c-102 0 -365 -3 -583 -7 l-398 -6 0 -719 0 -718 -35 0 -34 0 -50 155
c-28 85 -73 239 -101 342 -62 228 -106 319 -200 414 -68 69 -203 164 -382 268
-60 35 -108 64 -108 66 0 2 31 66 68 142 l68 140 76 -82 c89 -95 176 -147 279
-166 85 -15 142 -6 229 37 88 45 145 97 339 312 291 323 305 344 306 472 0
127 -59 218 -178 270 -84 37 -128 37 -205 0 -53 -26 -86 -53 -162 -134 -145
-154 -220 -228 -228 -224 -4 2 -50 50 -102 108 -52 58 -133 144 -181 192 -79
79 -99 93 -210 147 -156 75 -526 228 -599 247 -69 18 -219 17 -289 -2z m414
-278 c215 -86 375 -162 452 -214 33 -22 123 -107 199 -188 76 -81 165 -174
196 -207 l57 -60 51 5 c75 7 141 57 331 251 167 169 167 169 195 156 36 -18
51 -69 33 -113 -7 -16 -67 -87 -134 -156 -66 -69 -164 -174 -219 -233 -112
-122 -177 -167 -244 -167 -84 0 -79 -4 -393 334 -72 77 -80 71 -174 -131 -42
-93 -107 -224 -143 -293 -74 -140 -83 -191 -48 -263 20 -40 45 -58 332 -237
156 -98 248 -177 286 -246 14 -27 45 -116 68 -199 66 -238 114 -389 170 -540
29 -77 53 -157 53 -177 3 -70 -67 -104 -129 -63 -45 29 -80 101 -205 413 -67
169 -131 324 -141 345 -49 98 -155 178 -391 298 -236 119 -441 230 -465 253
-29 25 -57 79 -65 123 -13 69 14 146 185 520 l170 372 -26 56 c-24 53 -29 58
-98 89 -87 39 -191 76 -216 76 -10 0 -41 -7 -68 -17 -42 -14 -80 -47 -275
-240 -197 -195 -230 -223 -257 -223 -37 0 -102 52 -102 81 0 24 377 478 450
541 104 91 201 129 320 124 66 -2 96 -11 245 -70z m2015 -1284 c44 -22 60 -37
82 -77 23 -43 28 -62 28 -131 0 -120 -30 -173 -172 -309 l-111 -105 152 0
c170 0 156 9 145 -87 l-7 -53 -253 0 -254 0 0 63 0 62 131 124 c72 69 146 147
165 175 65 100 64 197 -4 225 -50 21 -83 4 -112 -57 l-25 -52 -78 0 -78 0 6
38 c21 121 63 170 180 209 56 18 139 8 205 -25z m1192 24 c32 -7 74 -26 94
-41 85 -65 98 -201 29 -295 l-25 -34 29 -30 c44 -47 54 -75 55 -151 1 -123
-55 -201 -166 -231 -190 -50 -358 41 -358 194 0 21 4 22 79 22 l79 0 7 -29
c10 -45 38 -64 96 -65 44 -1 54 3 75 27 45 53 23 146 -41 173 -19 8 -50 14
-68 14 -31 0 -35 4 -41 31 -3 17 -6 47 -6 65 0 31 3 34 29 34 39 0 81 16 108
42 52 48 32 132 -34 144 -52 10 -85 -5 -106 -49 l-19 -37 -79 0 -79 0 6 28
c23 95 88 163 181 188 62 16 86 17 155 0z m-3630 -318 c30 -29 78 -66 106 -83
37 -21 50 -34 45 -45 -3 -8 -14 -48 -25 -88 -39 -150 -215 -396 -303 -422 -26
-8 -176 -14 -438 -17 -372 -5 -399 -4 -417 12 -38 34 -17 137 34 170 20 13 58
18 183 21 87 2 210 6 274 8 98 2 124 7 171 28 100 46 125 78 223 282 48 102
89 186 91 186 1 0 27 -24 56 -52z"/>
<path d="M5394 4206 c-44 -20 -64 -53 -64 -105 0 -66 36 -101 105 -101 58 0
88 17 111 62 45 88 -58 186 -152 144z"/>
<path d="M4811 3965 c-53 -15 -108 -43 -143 -73 -16 -14 -18 -13 -18 10 0 50
-18 59 -105 56 l-80 -3 -3 -417 -2 -418 105 0 105 0 0 263 c0 255 1 263 24
313 33 70 75 99 146 99 68 0 111 -27 134 -85 13 -34 16 -86 16 -315 l0 -275
105 0 105 0 0 308 c0 351 -4 380 -70 454 -70 80 -204 115 -319 83z"/>
<path d="M3590 3652 c0 -332 5 -368 63 -444 18 -23 54 -53 82 -67 44 -23 61
-26 155 -26 91 0 111 3 150 24 25 13 53 30 62 38 15 14 18 12 26 -18 l8 -34
97 -3 97 -3 0 416 0 415 -105 0 -105 0 0 -250 c0 -273 -4 -296 -58 -353 -75
-79 -181 -75 -233 9 -24 38 -24 44 -27 317 l-3 277 -105 0 -104 0 0 -298z"/>
<path d="M5330 3535 l0 -415 110 0 110 0 0 399 c0 220 -3 406 -6 415 -5 13
-25 16 -110 16 l-104 0 0 -415z"/>
<path d="M5630 3943 c0 -9 49 -150 186 -533 l101 -285 118 0 118 0 94 255 c51
140 118 326 148 413 l54 157 -98 0 c-70 0 -100 -4 -104 -12 -2 -7 -46 -138
-97 -291 -51 -153 -96 -275 -100 -270 -4 4 -48 131 -98 282 -51 151 -98 278
-104 283 -16 10 -218 11 -218 1z"/>
<path d="M5897 2993 c-9 -8 -9 -955 -1 -1017 l7 -46 103 0 104 0 0 274 c0 298
3 317 57 367 42 39 92 53 145 39 53 -15 76 -34 99 -85 17 -36 19 -70 19 -317
l0 -278 105 0 105 0 0 318 c0 353 -5 387 -61 455 -90 109 -294 129 -424 41
-20 -13 -38 -24 -40 -24 -3 0 -5 63 -5 140 l0 140 -103 0 c-57 0 -107 -3 -110
-7z"/>
<path d="M5392 2880 l3 -100 -68 0 -68 0 3 -82 3 -83 63 -3 62 -3 0 -236 c0
-245 6 -292 44 -348 27 -39 42 -52 96 -78 38 -18 63 -21 157 -22 61 0 113 2
115 5 2 3 2 41 0 85 l-3 80 -62 -3 c-37 -1 -72 3 -87 10 -42 22 -49 65 -49
296 l-1 212 99 0 100 0 6 43 c4 23 5 60 3 82 l-3 39 -102 -3 -103 -3 0 106 0
106 -106 0 -105 0 3 -100z"/>
<path d="M3382 2795 c-152 -33 -234 -116 -244 -245 l-3 -45 98 -3 97 -3 10 28
c25 71 63 98 133 97 91 -1 140 -45 149 -133 3 -38 12 -35 -117 -44 -87 -7
-220 -34 -257 -53 -116 -60 -174 -192 -133 -300 22 -58 75 -118 129 -147 34
-18 57 -22 141 -22 100 0 132 9 246 72 4 2 10 -12 13 -32 l7 -35 98 0 98 0 -4
248 c-5 381 -7 401 -32 457 -12 27 -32 60 -44 73 -35 38 -115 73 -196 88 -92
16 -109 16 -189 -1z m253 -537 c-16 -94 -79 -161 -166 -173 -79 -12 -139 34
-139 106 0 45 41 85 98 94 20 4 44 8 52 10 8 1 48 3 88 4 l74 1 -7 -42z"/>
<path d="M2107 2780 c-27 -10 -63 -30 -82 -44 -18 -14 -36 -26 -39 -26 -3 0
-8 16 -12 35 l-6 35 -99 0 -99 0 2 -422 3 -423 108 -3 107 -3 0 273 c0 243 2
277 19 313 22 49 69 91 111 100 49 11 120 -30 148 -85 21 -43 22 -54 22 -322
l0 -279 103 3 102 3 5 280 c4 241 7 284 22 312 45 82 159 110 222 55 43 -39
46 -59 46 -330 0 -143 3 -274 6 -291 l7 -31 103 0 104 0 0 317 c0 360 -5 392
-72 468 -55 63 -127 88 -233 83 -89 -5 -148 -28 -216 -86 l-39 -33 -11 24
c-38 83 -213 124 -332 77z"/>
<path d="M4385 2793 c-63 -14 -121 -39 -160 -69 l-44 -33 -8 42 -9 42 -103 3
-104 3 7 -23 c3 -13 6 -204 6 -425 l0 -403 104 0 104 0 5 238 c2 153 8 251 16
277 27 82 127 145 233 145 l38 0 0 105 0 105 -32 -1 c-18 -1 -42 -3 -53 -6z"/>
<path d="M4737 2790 c-52 -14 -127 -53 -159 -84 -34 -35 -64 -100 -73 -159
l-7 -47 100 0 99 0 17 44 c24 62 92 94 166 77 60 -13 101 -57 107 -113 l5 -45
-68 -7 c-270 -27 -375 -71 -428 -178 -63 -127 -1 -288 130 -337 99 -37 253
-19 335 40 36 25 37 25 45 -16 l6 -35 100 0 99 0 -3 323 c-3 314 -4 323 -27
374 -49 109 -150 164 -311 169 -52 2 -112 -1 -133 -6z m258 -527 c-15 -88 -42
-131 -100 -161 -41 -21 -111 -25 -143 -8 -39 20 -52 44 -52 94 0 32 6 45 30
66 36 30 87 40 218 44 l53 2 -6 -37z"/>
<path d="M7070 2789 c-71 -14 -143 -55 -198 -112 -97 -104 -141 -235 -124
-373 19 -153 85 -267 192 -332 78 -47 122 -57 236 -57 97 1 105 3 178 39 81
39 134 93 178 180 66 129 64 316 -4 450 -26 51 -102 132 -153 161 -78 46 -203
64 -305 44z m153 -181 c22 -7 56 -27 74 -45 53 -54 67 -95 67 -208 1 -89 -2
-106 -25 -150 -71 -139 -243 -153 -333 -27 -29 42 -31 50 -34 154 -4 127 9
176 61 225 64 61 113 74 190 51z"/>
<path d="M8028 2784 c-25 -8 -69 -29 -96 -48 l-51 -34 -8 37 -9 36 -98 3 c-87
2 -98 1 -92 -13 3 -9 6 -201 6 -426 l0 -409 110 0 109 0 3 288 3 289 28 36
c36 47 81 70 133 69 55 0 97 -24 126 -69 23 -37 23 -44 26 -325 l3 -288 105 0
105 0 -3 333 c-3 322 -4 333 -26 382 -31 68 -76 111 -139 135 -64 24 -165 26
-235 4z"/>
</g>
</svg>
